<svg xmlns="http://www.w3.org/2000/svg" viewBox="0 0 127 25" width="127" height="25"><path d="M68.6 3.7h-4.1l-.1 15.9h3.9c2.7 0 3.9-2.4 3.8-4.1V7.7c.2-2.2-1.6-4-3.5-4zM5.8 1.9L2.2 5.5h5.1v14.6l1.8 1.8 1.8-1.8V5.5h5l-3.6-3.6H5.8zm-.2 5H2.1v8.2l2.6 2.6 2.5-2.4-1.6-1.5V6.9zm12.2 9v-11L13.2.4H4.9L.2 5v10.9L9 24.5l8.8-8.6zm-16.7-.3V5.3l4.2-4.1h7.4l4.1 4v10.3l-7.9 7.7-7.8-7.6zm11.3-1.8l-1.5 1.5 2.4 2.4 2.6-2.6V6.9h-3.5v6.9zm56.9 2c0 .5-.4.8-.8.8h-1.1V6.8h1.1c.4 0 .8.4.8.8v8.2zM59.4 3.7h-3v15.9h7v-3.1h-3.9l-.1-12.8zm-17.7 0c-1.7 0-2.5.9-3.1 1.6s-.8 1.8-.8 2.5v7.9c0 1.4.5 2.4 1.2 2.9 1 .8 1.5 1 2.7 1.1h.2c1.1 0 1.8-.3 2.6-1 .3-.3 1.2-1.4 1.2-2.6v-8c-.1-2.6-1.9-4.4-4-4.4zm.9 12.1c0 .5-.4.9-.9.9s-.9-.4-.9-.9V7.6c0-.5.4-.9.9-.9s.9.4.9.9v8.2zm10.7-3c.5-.5 1.3-1.5 1.3-2.5V7.4c-.3-2.4-1.7-3.6-4.1-3.7h-3.8v15.9h2.9v-5.7h.8l1.6 5.7h3.2l-.2-.7-1.7-6.1zm-1.7-2.9c0 .5-.4.9-1 .9h-1.1V6.9h1.4c.4 0 .7.4.7.7v2.3zm26.9 1.5c.1-1.5-1.4-2.5-2.6-2.5-1.6 0-2.6 1.1-2.6 2.6v5.3c-.1 1.5 1 2.9 2.5 2.9s2.8-1.3 2.7-2.7v-5.6zm-2.1 5.4c0 .3-.2.5-.5.5s-.5-.2-.5-.5v-5.4c0-.3.2-.5.5-.5s.5.2.5.5v5.4zm42.3-13.1H115l-2.2 4.5V3.8h-3l-.1 15.9h3V13l2.6 6.7h3.4l-3.8-9.4 3.8-6.6zM79.6 19.6h2.2v-4.4h2v-1.9h-2.1v-2.1h2.8V9.1h-5l.1 10.5zm26-8.5l-2.4-7.3h-3.3v15.9h3.1v-7.6l2.5 7.6h3.1v-16h-3v7.4zM91.2 6.8v-3h-7.8v3h2.4v12.9h3.1V6.8h2.3zm1.6-3.1v.2l-2.7 15.7h3.2l.6-3.7h1.6l.5 3.7h3.2L96.5 3.7h-3.7zm1.2 9.6l.6-3.2.5 3.2H94zm30.6-1.7c-.5-.4-.8-.7-1.1-1-.3-.2-.5-.4-.8-.7-.4-.4-1.1-1.3-1.1-1.9 0-.4-.1-.7.3-1.1.2-.2.4-.3.6-.3h.1c.3.1.6.4.7.9l.2.9 3-.4c0-.2 0-1-.2-1.5-.5-1.3-1.6-2.3-2.9-2.6-.3-.1-.6-.1-.9-.1-.5 0-1.1.1-1.7.3-1 .4-2.4 1.8-2.3 3.6 0 .9 0 1.7.7 2.7.9 1.3 2.2 2.4 3.5 3.6.6.5 1.1 1.5.7 2.3-.2.4-.5.6-.8.6-.2 0-.4-.1-.6-.3-.6-.5-.5-1.4-.6-1.9l-3 .1c0 2 .9 3.6 1.9 4.4s3 .8 4.2.4c.8-.3 2.2-1.8 2.4-3.5-.1-2-1.3-3.7-2.3-4.5zm-91.2-1l-.8-6.8h-3.1l-.8 6.8-.8-6.8h-3.2l2.6 15.9h2.9l.9-5.7 1 5.7h2.8l2.4-15.9h-3.2l-.7 6.8z" fill="#ced0ce"/></svg>